<svg width="560" height="528" viewBox="0 0 560 528" fill="none" xmlns="http://www.w3.org/2000/svg">
<g filter="url(#filter0_f_65_22)">
<mask id="mask0_65_22" style="mask-type:alpha" maskUnits="userSpaceOnUse" x="100" y="100" width="360" height="360">
<circle cx="180" cy="180" r="180" transform="matrix(1 0 0 -1 100 460)" fill="#D9D9D9"/>
</mask>
<g mask="url(#mask0_65_22)">
<g filter="url(#filter1_f_65_22)">
<path d="M496.6 299.389C411.181 368.342 201.838 243.752 63.4 299.389C64.7622 248.618 73.7953 218.819 112.496 162.735C162.508 111.225 198.533 92.9732 280 83.2C357.266 91.0632 395.275 106.109 448.226 162.735C482.758 211.031 492.238 241.312 496.6 299.389Z" fill="#CB4648" fill-opacity="0.5"/>
</g>
<g filter="url(#filter2_f_65_22)">
<path d="M56.8 189.61C176.85 121.811 410.93 264.961 532 188.817C530.508 243.401 520.616 281.797 478.234 342.093C423.464 397.47 384.012 417.093 294.795 427.6C210.179 419.146 168.555 402.97 110.566 342.093C72.7498 290.169 61.5764 252.049 56.8 189.61Z" fill="#313646" fill-opacity="0.5"/>
</g>
</g>
</g>
<defs>
<filter id="filter0_f_65_22" x="0" y="0" width="560" height="527.6" filterUnits="userSpaceOnUse" color-interpolation-filters="sRGB">
<feFlood flood-opacity="0" result="BackgroundImageFix"/>
<feBlend mode="normal" in="SourceGraphic" in2="BackgroundImageFix" result="shape"/>
<feGaussianBlur stdDeviation="50" result="effect1_foregroundBlur_65_22"/>
</filter>
<filter id="filter1_f_65_22" x="-36.6" y="-16.8" width="633.2" height="437.6" filterUnits="userSpaceOnUse" color-interpolation-filters="sRGB">
<feFlood flood-opacity="0" result="BackgroundImageFix"/>
<feBlend mode="normal" in="SourceGraphic" in2="BackgroundImageFix" result="shape"/>
<feGaussianBlur stdDeviation="50" result="effect1_foregroundBlur_65_22"/>
</filter>
<filter id="filter2_f_65_22" x="-43.2" y="70.8" width="675.2" height="456.8" filterUnits="userSpaceOnUse" color-interpolation-filters="sRGB">
<feFlood flood-opacity="0" result="BackgroundImageFix"/>
<feBlend mode="normal" in="SourceGraphic" in2="BackgroundImageFix" result="shape"/>
<feGaussianBlur stdDeviation="50" result="effect1_foregroundBlur_65_22"/>
</filter>
</defs>
</svg>
