<svg width="34" height="34" viewBox="0 0 34 34" fill="none" xmlns="http://www.w3.org/2000/svg">
<rect width="34" height="34" rx="4" fill="#CB4648"/>
<path d="M16.5268 7.29489C16.5706 7.20635 16.6383 7.13183 16.7223 7.07972C16.8062 7.02761 16.903 7 17.0018 7C17.1006 7 17.1974 7.02761 17.2813 7.07972C17.3653 7.13183 17.433 7.20635 17.4768 7.29489L19.7868 11.9739C19.939 12.2819 20.1636 12.5483 20.4414 12.7503C20.7192 12.9524 21.0419 13.084 21.3818 13.1339L26.5478 13.8899C26.6457 13.9041 26.7376 13.9454 26.8133 14.0091C26.8889 14.0728 26.9452 14.1564 26.9758 14.2505C27.0064 14.3446 27.0101 14.4453 26.9864 14.5413C26.9627 14.6374 26.9126 14.7248 26.8418 14.7939L23.1058 18.4319C22.8594 18.672 22.6751 18.9684 22.5686 19.2955C22.4622 19.6227 22.4369 19.9708 22.4948 20.3099L23.3768 25.4499C23.3941 25.5477 23.3835 25.6485 23.3463 25.7406C23.3091 25.8327 23.2467 25.9125 23.1663 25.9709C23.086 26.0293 22.9908 26.0639 22.8917 26.0708C22.7926 26.0777 22.6935 26.0566 22.6058 26.0099L17.9878 23.5819C17.6835 23.4221 17.345 23.3386 17.0013 23.3386C16.6576 23.3386 16.3191 23.4221 16.0148 23.5819L11.3978 26.0099C11.3101 26.0563 11.2112 26.0772 11.1123 26.0701C11.0133 26.0631 10.9183 26.0285 10.8381 25.9701C10.7579 25.9118 10.6956 25.8321 10.6585 25.7401C10.6213 25.6482 10.6107 25.5476 10.6278 25.4499L11.5088 20.3109C11.567 19.9716 11.5418 19.6233 11.4353 19.2959C11.3289 18.9686 11.1444 18.672 10.8978 18.4319L7.1618 14.7949C7.09039 14.7259 7.03979 14.6383 7.01576 14.542C6.99173 14.4456 6.99524 14.3445 7.02588 14.2501C7.05652 14.1557 7.11307 14.0717 7.18908 14.0079C7.26509 13.944 7.3575 13.9028 7.4558 13.8889L12.6208 13.1339C12.9611 13.0844 13.2842 12.953 13.5624 12.7509C13.8406 12.5488 14.0655 12.2822 14.2178 11.9739L16.5268 7.29489Z" stroke="black" stroke-width="2" stroke-linecap="round" stroke-linejoin="round"/>
</svg>
